/* XPM */
static char *wood_north[] = {
"64 64 4 1",
". c #3E2723",
"+ c #5D4037",
"# c #795548",
"@ c #8D6E63",
"................................................................",
"+++++++++++++++++++++++++++++++++++++++++++++++++++++++++++++++.",
"+++++++++++++++++++++++++++++++++++++++++++++++++++++++++++++++.",
"################################################################",
"################################################################",
"################################################################",
"@@@@@@@@@@@@@@@@@@@@@@@@@@@@@@@@@@@@@@@@@@@@@@@@@@@@@@@@@@@@@@@@",
"@@@@@@@@@@@@@@@@@@@@@@@@@@@@@@@@@@@@@@@@@@@@@@@@@@@@@@@@@@@@@@@@",
"@@@@@@@@@@@@@@@@@@@@@@@@@@@@@@@@@@@@@@@@@@@@@@@@@@@@@@@@@@@@@@@@",
"................................................................",
"................................................................",
"+++++++++++++++++++++++++++++++++++++++++++++++++++++++++++++++.",
"+++++++++++++++++++++++++++++++++++++++++++++++++++++++++++++++.",
"################################################################",
"################################################################",
"################################################################",
"@@@@@@@@@@@@@@@@@@@@@@@@@@@@@@@@@@@@@@@@@@@@@@@@@@@@@@@@@@@@@@@@",
"@@@@@@@@@@@@@@@@@@@@@@@@@@@@@@@@@@@@@@@@@@@@@@@@@@@@@@@@@@@@@@@@",
"@@@@@@@@@@@@@@@@@@@@@@@@@@@@@@@@@@@@@@@@@@@@@@@@@@@@@@@@@@@@@@@@",
"................................................................",
"................................................................",
"+++++++++++++++++++++++++++++++++++++++++++++++++++++++++++++++.",
"+++++++++++++++++++++++++++++++++++++++++++++++++++++++++++++++.",
"################################################################",
"################################################################",
"################################################################",
"@@@@@@@@@@@@@@@@@@@@@@@@@@@@@@@@@@@@@@@@@@@@@@@@@@@@@@@@@@@@@@@@",
"@@@@@@@@@@@@@@@@@@@@@@@@@@@@@@@@@@@@@@@@@@@@@@@@@@@@@@@@@@@@@@@@",
"@@@@@@@@@@@@@@@@@@@@@@@@@@@@@@@@@@@@@@@@@@@@@@@@@@@@@@@@@@@@@@@@",
"................................................................",
"................................................................",
"+++++++++++++++++++++++++++++++++++++++++++++++++++++++++++++++.",
"+++++++++++++++++++++++++++++++++++++++++++++++++++++++++++++++.",
"################################################################",
"################################################################",
"################################################################",
"@@@@@@@@@@@@@@@@@@@@@@@@@@@@@@@@@@@@@@@@@@@@@@@@@@@@@@@@@@@@@@@@",
"@@@@@@@@@@@@@@@@@@@@@@@@@@@@@@@@@@@@@@@@@@@@@@@@@@@@@@@@@@@@@@@@",
"@@@@@@@@@@@@@@@@@@@@@@@@@@@@@@@@@@@@@@@@@@@@@@@@@@@@@@@@@@@@@@@@",
"................................................................",
"................................................................",
"+++++++++++++++++++++++++++++++++++++++++++++++++++++++++++++++.",
"+++++++++++++++++++++++++++++++++++++++++++++++++++++++++++++++.",
"################################################################",
"################################################################",
"################################################################",
"@@@@@@@@@@@@@@@@@@@@@@@@@@@@@@@@@@@@@@@@@@@@@@@@@@@@@@@@@@@@@@@@",
"@@@@@@@@@@@@@@@@@@@@@@@@@@@@@@@@@@@@@@@@@@@@@@@@@@@@@@@@@@@@@@@@",
"@@@@@@@@@@@@@@@@@@@@@@@@@@@@@@@@@@@@@@@@@@@@@@@@@@@@@@@@@@@@@@@@",
"................................................................",
"................................................................",
"+++++++++++++++++++++++++++++++++++++++++++++++++++++++++++++++.",
"+++++++++++++++++++++++++++++++++++++++++++++++++++++++++++++++.",
"################################################################",
"################################################################",
"################################################################",
"@@@@@@@@@@@@@@@@@@@@@@@@@@@@@@@@@@@@@@@@@@@@@@@@@@@@@@@@@@@@@@@@",
"@@@@@@@@@@@@@@@@@@@@@@@@@@@@@@@@@@@@@@@@@@@@@@@@@@@@@@@@@@@@@@@@",
"@@@@@@@@@@@@@@@@@@@@@@@@@@@@@@@@@@@@@@@@@@@@@@@@@@@@@@@@@@@@@@@@",
"................................................................",
"................................................................",
"+++++++++++++++++++++++++++++++++++++++++++++++++++++++++++++++.",
"+++++++++++++++++++++++++++++++++++++++++++++++++++++++++++++++.",
"################################################################",
"################################################################",
"################################################################",
"@@@@@@@@@@@@@@@@@@@@@@@@@@@@@@@@@@@@@@@@@@@@@@@@@@@@@@@@@@@@@@@@"
};